# xmcd
#
# Track frame offsets:
#	150
#	16149
#	31725
#	51861
#	83898
#	111344
#	135305
#	147767
#	179756
#
# Disc length: 2746 seconds
#
# Revision: 0
# Processed by: cddbd v1.4PL0 Copyright (c) Steve Scherf et al.
# Submitted via: dBpowerAMP V4.0
#
DISCID=710ab809
DTITLE=Blue Illusion - Blue Illusion
DYEAR=2003
DGENRE=Blues
TTITLE0=Don't Come Around
TTITLE1=Keep Your Eyes Open
TTITLE2=EB
TTITLE3=Dreamin'
TTITLE4=Keep On Pushin'
TTITLE5=Leavin' To Stay
TTITLE6=I Don't Worry
TTITLE7=Not Gonna Be Fooled
TTITLE8=Glass
EXTD=\n\n
EXTT0=
EXTT1=
EXTT2=
EXTT3=
EXTT4=
EXTT5=
EXTT6=
EXTT7=
EXTT8=
PLAYORDER=
